<svg version="1.1" id="Layer_1" xmlns="http://www.w3.org/2000/svg" xmlns:xlink="http://www.w3.org/1999/xlink" x="0px" y="0px"
   width="24px" height="24px" viewBox="0 0 24 24" style="enable-background:new 0 0 24 24;" xml:space="preserve">
<style type="text/css">
  .st0{fill:#dddddd;}
</style>
<g>
  <rect x="12.5" y="16" class="st0" width="4.5" height="3"/>
  <rect x="7" y="16" class="st0" width="4.5" height="3"/>
  <rect x="12.5" y="12" class="st0" width="4.5" height="3"/>
  <rect x="7" y="12" class="st0" width="4.5" height="3"/>
  <path class="st0" d="M0,23.5C0,23.8,0.2,24,0.5,24h23c0.3,0,0.5-0.2,0.5-0.5V8H0V23.5z M2.5,16C2.2,16,2,15.8,2,15.5
    C2,15.2,2.2,15,2.5,15H6v-3H2.5C2.2,12,2,11.8,2,11.5C2,11.2,2.2,11,2.5,11H6V9.5C6,9.2,6.2,9,6.5,9C6.8,9,7,9.2,7,9.5V11h4.5V9.5
    C11.5,9.2,11.7,9,12,9s0.5,0.2,0.5,0.5V11H17V9.5C17,9.2,17.2,9,17.5,9S18,9.2,18,9.5V11h3.5c0.3,0,0.5,0.2,0.5,0.5
    c0,0.3-0.2,0.5-0.5,0.5H18v3h3.5c0.3,0,0.5,0.2,0.5,0.5c0,0.3-0.2,0.5-0.5,0.5H18v3h3.5c0.3,0,0.5,0.2,0.5,0.5
    c0,0.3-0.2,0.5-0.5,0.5H18v1.5c0,0.3-0.2,0.5-0.5,0.5S17,21.8,17,21.5V20h-4.5v1.5c0,0.3-0.2,0.5-0.5,0.5s-0.5-0.2-0.5-0.5V20H7
    v1.5C7,21.8,6.8,22,6.5,22C6.2,22,6,21.8,6,21.5V20H2.5C2.2,20,2,19.8,2,19.5C2,19.2,2.2,19,2.5,19H6v-3H2.5z"/>
  <path class="st0" d="M23.5,2H20V0.5C20,0.2,19.8,0,19.5,0h-3C16.2,0,16,0.2,16,0.5V2H8V0.5C8,0.2,7.8,0,7.5,0h-3C4.2,0,4,0.2,4,0.5
    V2H0.5C0.2,2,0,2.2,0,2.5V7h24V2.5C24,2.2,23.8,2,23.5,2z M7,4H5V1h2V4z M19,4h-2V1h2V4z"/>
</g>
</svg>
