<svg version="1.1" id="Layer_1" xmlns="http://www.w3.org/2000/svg" xmlns:xlink="http://www.w3.org/1999/xlink" x="0px" y="0px"
   width="26px" height="14px" viewBox="0 0 26 14" style="enable-background:new 0 0 26 14;" xml:space="preserve">
<style type="text/css">
  .st0{fill:#BBBBBB;}
  .st1{fill:#454545;}
</style>
<g id="Inactive">
  <g id="Down">
    <path id="Caret_1_" class="st0" d="M4.2,13.8c-0.1,0-0.3-0.1-0.4-0.2L0.2,10c-0.2-0.2-0.2-0.6,0-0.8C0.4,9,0.7,9,0.9,9.2l3.2,3.2
      l3.2-3.2C7.6,9,8,9,8.2,9.2c0.2,0.2,0.2,0.6,0,0.8l-3.6,3.6C4.3,13.7,4.2,13.8,4.2,13.8L4.2,13.8z"/>
    <path id="Body_1_" class="st0" d="M3.6,12.8V0.4C3.6,0.2,3.8,0,4.1,0s0.5,0.2,0.5,0.4v12.4c0,0.2-0.2,0.4-0.5,0.4
      C3.8,13.2,3.6,13,3.6,12.8z"/>
  </g>
  <g id="Up_1_">
    <path id="Caret" class="st0" d="M12.7,0c0.1,0,0.3,0.1,0.4,0.2l3.6,3.6c0.2,0.2,0.2,0.6,0,0.8c-0.2,0.2-0.5,0.2-0.8,0l-3.2-3.2
      L9.5,4.6c-0.2,0.2-0.6,0.2-0.8,0C8.5,4.4,8.5,4,8.7,3.8l3.6-3.6C12.6,0.1,12.7,0,12.7,0L12.7,0z"/>
    <path id="Body" class="st0" d="M13.3,1v12.4c0,0.2-0.2,0.4-0.5,0.4s-0.5-0.2-0.5-0.4V1c0-0.2,0.2-0.4,0.5-0.4
      C13.1,0.6,13.3,0.8,13.3,1z"/>
  </g>
</g>
<g id="Active">
  <g id="Down_1_">
    <path id="Caret_3_" class="st1" d="M21.2,13.8c-0.1,0-0.3-0.1-0.4-0.2L17.2,10c-0.2-0.2-0.2-0.6,0-0.8c0.2-0.2,0.5-0.2,0.8,0
      l3.2,3.2l3.2-3.2C24.6,9,25,9,25.2,9.2c0.2,0.2,0.2,0.6,0,0.8l-3.6,3.6C21.3,13.7,21.2,13.8,21.2,13.8L21.2,13.8z"/>
    <path id="Body_3_" class="st1" d="M20.6,12.8V0.4c0-0.2,0.2-0.4,0.5-0.4s0.5,0.2,0.5,0.4v12.4c0,0.2-0.2,0.4-0.5,0.4
      C20.8,13.2,20.6,13,20.6,12.8z"/>
  </g>
</g>
</svg>
