<?xml version="1.0" encoding="utf-8"?>
<!-- Generator: Adobe Illustrator 17.0.1, SVG Export Plug-In . SVG Version: 6.00 Build 0)  -->
<!DOCTYPE svg PUBLIC "-//W3C//DTD SVG 1.1//EN" "http://www.w3.org/Graphics/SVG/1.1/DTD/svg11.dtd">
<svg version="1.1" xmlns="http://www.w3.org/2000/svg" xmlns:xlink="http://www.w3.org/1999/xlink" x="0px" y="0px" width="100px"
	 height="25px" viewBox="-349.5 200.5 100 25" style="enable-background:new -349.5 200.5 100 25;" xml:space="preserve">
<g id="Layer_1">
	<path style="fill:#FFFFFF;" d="M-326.416,209.53l-12.973,12.902l0,0c-0.351,0.351-0.833,0.569-1.37,0.569
		c-0.535,0-1.017-0.218-1.37-0.569l0,0l-5.803-5.807l0,0c-0.351-0.351-0.567-0.835-0.567-1.37c0-1.068,0.867-1.935,1.935-1.935
		c0.535,0,1.017,0.216,1.37,0.569l0,0l4.437,4.437l11.603-11.532l0,0c0.351-0.351,0.833-0.569,1.37-0.569
		c1.068,0,1.935,0.867,1.935,1.935C-325.851,208.694-326.069,209.177-326.416,209.53L-326.416,209.53L-326.416,209.53z
		 M-326.495,206.224L-326.495,206.224L-326.495,206.224L-326.495,206.224L-326.495,206.224z"/>
	<path style="fill:#FFFFFF;" d="M-304.642,224c-0.592,0-1.126-0.239-1.517-0.63l0,0l-6.341-6.341l-6.341,6.341l0,0
		c-0.389,0.389-0.923,0.63-1.517,0.63c-1.182,0-2.142-0.96-2.142-2.142c0-0.592,0.239-1.126,0.63-1.517l0,0l6.341-6.341
		l-6.341-6.341l0,0c-0.389-0.389-0.63-0.925-0.63-1.517c0-1.182,0.96-2.142,2.142-2.142c0.592,0,1.126,0.239,1.517,0.625l0,0
		l6.341,6.345l6.341-6.345l0,0c0.389-0.384,0.923-0.625,1.517-0.625c1.182,0,2.142,0.96,2.142,2.142
		c0,0.592-0.241,1.126-0.625,1.517l0,0l-6.341,6.341l6.341,6.341l0,0c0.384,0.389,0.625,0.925,0.625,1.517
		C-302.5,223.04-303.46,224-304.642,224L-304.642,224z"/>
	<path style="fill:#FFFFFF;" d="M-251.067,212.152c-0.38-0.38-0.875-0.567-1.369-0.57l-8.108,0.003l0.003-8.108
		c-0.003-0.497-0.191-0.991-0.57-1.369c-0.756-0.756-1.983-0.756-2.738,0c-0.378,0.378-0.567,0.875-0.567,1.372v8.105h-8.105
		c-0.499,0-0.993,0.189-1.372,0.567c-0.755,0.755-0.756,1.982,0,2.738c0.38,0.38,0.875,0.567,1.372,0.567h8.105v8.105
		c0,0.499,0.189,0.993,0.567,1.372c0.755,0.756,1.982,0.756,2.738,0c0.378-0.378,0.567-0.875,0.57-1.369v-8.105h8.105
		c0.495-0.004,0.991-0.191,1.369-0.57C-250.311,214.134-250.311,212.907-251.067,212.152z"/>
	<g>
		<path style="fill:#FFFFFF;" d="M-280.777,203.213c0.149,0,0.3,0.057,0.414,0.171l2.956,2.958c0.11,0.11,0.171,0.257,0.171,0.413
			s-0.062,0.301-0.171,0.411l-0.051,0.051l-13.373,13.373c-0.055,0.055-0.12,0.099-0.194,0.128l-1.809,0.731l-3.151,1.271
			c-0.072,0.029-0.146,0.043-0.219,0.043c-0.151,0-0.3-0.06-0.411-0.171c-0.166-0.166-0.217-0.413-0.128-0.63l2.002-4.96
			c0.029-0.074,0.072-0.14,0.127-0.195l12.018-12.017l0.053-0.053l0.94-0.94l0.413-0.413
			C-281.077,203.269-280.928,203.213-280.777,203.213 M-280.777,201.5c-0.617,0-1.195,0.242-1.629,0.68l-0.408,0.408l-0.94,0.94
			l-12.071,12.07c-0.221,0.221-0.392,0.483-0.509,0.779l-1.997,4.946c-0.348,0.85-0.149,1.827,0.505,2.483
			c0.428,0.428,1.019,0.673,1.622,0.673c0.291,0,0.575-0.055,0.848-0.161l3.163-1.276l1.81-0.731
			c0.276-0.108,0.536-0.279,0.762-0.505l13.375-13.375c0.483-0.488,0.723-1.064,0.723-1.677c0-0.605-0.245-1.197-0.673-1.625
			l-2.958-2.956C-279.587,201.74-280.164,201.5-280.777,201.5L-280.777,201.5z"/>
	</g>
	
		<rect x="-292.861" y="215.2" transform="matrix(0.7071 -0.7071 0.7071 0.7071 -240.0853 -142.3389)" style="fill:#FFFFFF;" width="2" height="6.879"/>
</g>
<g id="_x32_5px">
</g>
</svg>
