<?xml version="1.0" encoding="utf-8"?>
<!-- Generator: Adobe Illustrator 17.0.1, SVG Export Plug-In . SVG Version: 6.00 Build 0)  -->
<!DOCTYPE svg PUBLIC "-//W3C//DTD SVG 1.1//EN" "http://www.w3.org/Graphics/SVG/1.1/DTD/svg11.dtd">
<svg version="1.1" xmlns="http://www.w3.org/2000/svg" xmlns:xlink="http://www.w3.org/1999/xlink" x="0px" y="0px" width="100px"
	 height="25px" viewBox="-349.5 200.5 100 25" style="enable-background:new -349.5 200.5 100 25;" xml:space="preserve">
<g id="Layer_1">
	<path style="fill:#FFFFFF;" d="M-326.416,208.305l-12.973,12.902l0,0c-0.351,0.351-0.833,0.569-1.37,0.569
		c-0.535,0-1.017-0.218-1.37-0.569l0,0l-5.803-5.807l0,0c-0.351-0.351-0.567-0.835-0.567-1.37c0-1.068,0.867-1.935,1.935-1.935
		c0.535,0,1.017,0.216,1.37,0.569l0,0l4.437,4.437l11.603-11.532l0,0c0.351-0.351,0.833-0.569,1.37-0.569
		c1.068,0,1.935,0.867,1.935,1.935C-325.851,207.47-326.069,207.952-326.416,208.305L-326.416,208.305L-326.416,208.305z
		 M-326.495,205L-326.495,205L-326.495,205L-326.495,205L-326.495,205z"/>
	<path style="fill:#FFFFFF;" d="M-304.642,223c-0.592,0-1.126-0.239-1.517-0.63l0,0l-6.341-6.341l-6.341,6.341l0,0
		c-0.389,0.389-0.923,0.63-1.517,0.63c-1.182,0-2.142-0.96-2.142-2.142c0-0.592,0.239-1.126,0.63-1.517l0,0l6.341-6.341
		l-6.341-6.341l0,0c-0.389-0.389-0.63-0.925-0.63-1.517c0-1.182,0.96-2.142,2.142-2.142c0.592,0,1.126,0.239,1.517,0.625l0,0
		l6.341,6.345l6.341-6.345l0,0c0.389-0.384,0.923-0.625,1.517-0.625c1.182,0,2.142,0.96,2.142,2.142
		c0,0.592-0.241,1.126-0.625,1.517l0,0l-6.341,6.341l6.341,6.341l0,0c0.384,0.389,0.625,0.925,0.625,1.517
		C-302.5,222.04-303.46,223-304.642,223L-304.642,223z"/>
	<path style="fill:#FFFFFF;" d="M-251.067,211.11c-0.38-0.38-0.875-0.567-1.369-0.57l-8.108,0.003l0.003-8.108
		c-0.003-0.497-0.191-0.991-0.57-1.369c-0.756-0.756-1.983-0.756-2.738,0c-0.378,0.378-0.567,0.875-0.567,1.372v8.105h-8.105
		c-0.499,0-0.993,0.189-1.372,0.567c-0.755,0.755-0.756,1.982,0,2.738c0.38,0.38,0.875,0.567,1.372,0.567h8.105v8.105
		c0,0.499,0.189,0.993,0.567,1.372c0.755,0.756,1.982,0.756,2.738,0c0.378-0.378,0.567-0.875,0.57-1.369v-8.105h8.105
		c0.495-0.004,0.991-0.191,1.369-0.57C-250.311,213.093-250.311,211.866-251.067,211.11z"/>
	<g>
		<path style="fill:#FFFFFF;" d="M-281.283,203.559c0.136,0,0.273,0.051,0.377,0.156l2.691,2.692c0.1,0.1,0.156,0.234,0.156,0.376
			c0,0.142-0.056,0.274-0.156,0.374l-0.047,0.047l-12.173,12.173c-0.05,0.05-0.109,0.09-0.176,0.117l-1.646,0.666l-2.869,1.157
			c-0.065,0.027-0.133,0.039-0.2,0.039c-0.137,0-0.273-0.055-0.374-0.156c-0.151-0.151-0.198-0.376-0.117-0.574l1.822-4.515
			c0.026-0.067,0.065-0.128,0.115-0.178l10.939-10.938l0.048-0.048l0.856-0.856l0.376-0.376
			C-281.556,203.61-281.42,203.559-281.283,203.559 M-281.283,202c-0.561,0-1.088,0.22-1.483,0.619l-0.371,0.371l-0.856,0.856
			l-10.988,10.986c-0.201,0.201-0.357,0.44-0.463,0.709l-1.818,4.502c-0.316,0.773-0.136,1.663,0.46,2.261
			c0.39,0.39,0.928,0.613,1.476,0.613c0.265,0,0.524-0.05,0.772-0.147l2.879-1.161l1.648-0.666c0.251-0.098,0.488-0.254,0.694-0.46
			l12.174-12.174c0.44-0.444,0.658-0.968,0.658-1.526c0-0.55-0.223-1.09-0.613-1.479l-2.692-2.691
			C-280.2,202.218-280.725,202-281.283,202L-281.283,202z"/>
	</g>
	<polyline style="fill:#FFFFFF;" points="-294.5,216 -289.5,220 -295.5,222 -296.062,221.25 -294.5,216 	"/>
</g>
<g id="_x32_5px">
</g>
</svg>
