<svg version="1.1" xmlns="http://www.w3.org/2000/svg" xmlns:xlink="http://www.w3.org/1999/xlink" x="0px" y="0px" width="100px"
	 height="25px" viewBox="-349.5 200.5 100 25" style="enable-background:new -349.5 200.5 100 25;" xml:space="preserve">
<g id="Layer_1">
	<path style="fill:#FFFFFF;" d="M-326.416,209.53l-12.973,12.902l0,0c-0.351,0.351-0.833,0.569-1.37,0.569
		c-0.535,0-1.017-0.218-1.37-0.569l0,0l-5.803-5.807l0,0c-0.351-0.351-0.567-0.835-0.567-1.37c0-1.068,0.867-1.935,1.935-1.935
		c0.535,0,1.017,0.216,1.37,0.569l0,0l4.437,4.437l11.603-11.532l0,0c0.351-0.351,0.833-0.569,1.37-0.569
		c1.068,0,1.935,0.867,1.935,1.935C-325.851,208.694-326.069,209.177-326.416,209.53L-326.416,209.53L-326.416,209.53z
		 M-326.495,206.224L-326.495,206.224L-326.495,206.224L-326.495,206.224L-326.495,206.224z"/>
	<path style="fill:#FFFFFF;" d="M-304.642,224c-0.592,0-1.126-0.239-1.517-0.63l0,0l-6.341-6.341l-6.341,6.341l0,0
		c-0.389,0.389-0.923,0.63-1.517,0.63c-1.182,0-2.142-0.96-2.142-2.142c0-0.592,0.239-1.126,0.63-1.517l0,0l6.341-6.341
		l-6.341-6.341l0,0c-0.389-0.389-0.63-0.925-0.63-1.517c0-1.182,0.96-2.142,2.142-2.142c0.592,0,1.126,0.239,1.517,0.625l0,0
		l6.341,6.345l6.341-6.345l0,0c0.389-0.384,0.923-0.625,1.517-0.625c1.182,0,2.142,0.96,2.142,2.142
		c0,0.592-0.241,1.126-0.625,1.517l0,0l-6.341,6.341l6.341,6.341l0,0c0.384,0.389,0.625,0.925,0.625,1.517
		C-302.5,223.04-303.46,224-304.642,224L-304.642,224z"/>
	<path style="fill:#FFFFFF;" d="M-251.067,212.152c-0.38-0.38-0.875-0.567-1.369-0.57l-8.108,0.003l0.003-8.108
		c-0.003-0.497-0.191-0.991-0.57-1.369c-0.756-0.756-1.983-0.756-2.738,0c-0.378,0.378-0.567,0.875-0.567,1.372v8.105h-8.105
		c-0.499,0-0.993,0.189-1.372,0.567c-0.755,0.755-0.756,1.982,0,2.738c0.38,0.38,0.875,0.567,1.372,0.567h8.105v8.105
		c0,0.499,0.189,0.993,0.567,1.372c0.755,0.756,1.982,0.756,2.738,0c0.378-0.378,0.567-0.875,0.57-1.369v-8.105h8.105
		c0.495-0.004,0.991-0.191,1.369-0.57C-250.311,214.134-250.311,212.907-251.067,212.152z"/>
	<path style="fill:#FFFFFF;" d="M-276.019,204.952l-2.958-2.956c-0.481-0.481-1.121-0.746-1.8-0.746
		c-0.684,0-1.326,0.268-1.806,0.753l-13.419,13.418c-0.246,0.245-0.436,0.536-0.564,0.862l-1.997,4.945
		c-0.386,0.944-0.167,2.026,0.56,2.755c0.475,0.475,1.13,0.746,1.799,0.746c0.32,0,0.636-0.06,0.941-0.18l4.972-2.006
		c0.313-0.123,0.599-0.312,0.848-0.562l13.376-13.375c0.52-0.525,0.795-1.166,0.795-1.853
		C-275.272,206.084-275.544,205.427-276.019,204.952z M-296.078,222.489c-0.123,0.051-0.267,0.02-0.36-0.074
		c-0.095-0.095-0.124-0.235-0.073-0.359l1.913-4.74l3.26,3.26L-296.078,222.489z M-277.583,206.988l-12.258,12.257l-3.43-3.43
		l12.258-12.256c0.062-0.062,0.145-0.097,0.235-0.097s0.175,0.035,0.238,0.098l2.957,2.958c0.063,0.063,0.098,0.146,0.098,0.236
		C-277.485,206.843-277.521,206.926-277.583,206.988z"/>
</g>
<g id="_x32_5px">
</g>
</svg>
